<svg width="192" height="197" viewBox="0 0 192 197" fill="none" xmlns="http://www.w3.org/2000/svg">
<g clip-path="url(#clip0_2_56)">
<path d="M49.8985 157.231C46.6133 150.343 39.8041 146.031 33.7116 145.851C35.0854 144.414 36.7579 143.096 38.6692 141.958C39.5054 141.479 39.2068 140.281 38.2511 140.162C33.3532 139.802 28.5151 141.299 25.23 144.234C21.4072 141.18 15.7926 139.443 10.1183 140.162C9.16259 140.281 8.9834 141.659 9.93908 142.018C12.3283 142.917 14.5383 144.174 16.3899 145.732C10.178 145.851 3.30904 150.403 0.0836235 157.471C-0.274757 158.309 0.621193 159.148 1.39768 158.668C5.39959 156.452 9.81962 154.835 13.5826 154.536C8.86394 157.59 6.415 163.819 7.07203 170.048C7.19149 171.006 8.44582 171.246 8.86394 170.407C12.1491 164.179 16.6288 160.825 21.1086 160.705C22.8408 177.235 19.7945 191.07 18.6597 195.502C18.4805 196.281 19.018 197 19.7945 197H29.8292C30.4862 197 30.964 196.521 31.0238 195.862C31.0835 195.023 31.0835 193.825 31.1432 192.208L27.3802 191.789C27.0816 191.729 27.0816 191.07 27.3802 191.07L31.203 190.651C31.203 188.675 31.203 186.279 31.0835 183.584L27.201 183.165C26.9024 183.105 26.9024 182.446 27.201 182.446L31.0238 182.027C30.964 179.87 30.7849 177.475 30.6057 175.019L26.6038 174.54C26.3051 174.48 26.3051 173.821 26.6038 173.821L30.4862 173.402C30.307 171.126 30.0681 168.73 29.7097 166.335L26.1856 165.736C25.887 165.736 25.887 165.017 26.1856 165.017L29.4708 164.658C29.2916 163.28 29.0527 161.903 28.8735 160.525C33.5324 161.124 37.7733 164.538 40.5208 170.887C40.8792 171.725 42.1335 171.545 42.3127 170.647C43.6268 163.759 41.3571 157.411 36.5787 154.356C39.8638 154.656 43.9255 156.153 48.6441 158.549C49.4206 158.908 50.3166 158.069 49.8985 157.231Z" fill="#4B321D"/>
</g>
<path d="M9.774 40.126C9.774 41.17 9.414 42.04 8.694 42.736C7.986 43.42 6.9 43.762 5.436 43.762H3.024V49H1.386V36.454H5.436C6.852 36.454 7.926 36.796 8.658 37.48C9.402 38.164 9.774 39.046 9.774 40.126ZM5.436 42.412C6.348 42.412 7.02 42.214 7.452 41.818C7.884 41.422 8.1 40.858 8.1 40.126C8.1 38.578 7.212 37.804 5.436 37.804H3.024V42.412H5.436ZM16.1118 49.162C15.1878 49.162 14.3478 48.952 13.5918 48.532C12.8478 48.112 12.2598 47.518 11.8278 46.75C11.4078 45.97 11.1978 45.07 11.1978 44.05C11.1978 43.042 11.4138 42.154 11.8458 41.386C12.2898 40.606 12.8898 40.012 13.6458 39.604C14.4018 39.184 15.2478 38.974 16.1838 38.974C17.1198 38.974 17.9658 39.184 18.7218 39.604C19.4778 40.012 20.0718 40.6 20.5038 41.368C20.9478 42.136 21.1698 43.03 21.1698 44.05C21.1698 45.07 20.9418 45.97 20.4858 46.75C20.0418 47.518 19.4358 48.112 18.6678 48.532C17.8998 48.952 17.0478 49.162 16.1118 49.162ZM16.1118 47.722C16.6998 47.722 17.2518 47.584 17.7678 47.308C18.2838 47.032 18.6978 46.618 19.0098 46.066C19.3338 45.514 19.4958 44.842 19.4958 44.05C19.4958 43.258 19.3398 42.586 19.0278 42.034C18.7158 41.482 18.3078 41.074 17.8038 40.81C17.2998 40.534 16.7538 40.396 16.1658 40.396C15.5658 40.396 15.0138 40.534 14.5098 40.81C14.0178 41.074 13.6218 41.482 13.3218 42.034C13.0218 42.586 12.8718 43.258 12.8718 44.05C12.8718 44.854 13.0158 45.532 13.3038 46.084C13.6038 46.636 13.9998 47.05 14.4918 47.326C14.9838 47.59 15.5238 47.722 16.1118 47.722ZM36.4635 39.136L33.3855 49H31.6935L29.3175 41.17L26.9415 49H25.2495L22.1535 39.136H23.8275L26.0955 47.416L28.5435 39.136H30.2175L32.6115 47.434L34.8435 39.136H36.4635ZM47.0891 43.69C47.0891 44.002 47.0711 44.332 47.0351 44.68H39.1511C39.2111 45.652 39.5411 46.414 40.1411 46.966C40.7531 47.506 41.4911 47.776 42.3551 47.776C43.0631 47.776 43.6511 47.614 44.1191 47.29C44.5991 46.954 44.9351 46.51 45.1271 45.958H46.8911C46.6271 46.906 46.0991 47.68 45.3071 48.28C44.5151 48.868 43.5311 49.162 42.3551 49.162C41.4191 49.162 40.5791 48.952 39.8351 48.532C39.1031 48.112 38.5271 47.518 38.1071 46.75C37.6871 45.97 37.4771 45.07 37.4771 44.05C37.4771 43.03 37.6811 42.136 38.0891 41.368C38.4971 40.6 39.0671 40.012 39.7991 39.604C40.5431 39.184 41.3951 38.974 42.3551 38.974C43.2911 38.974 44.1191 39.178 44.8391 39.586C45.5591 39.994 46.1111 40.558 46.4951 41.278C46.8911 41.986 47.0891 42.79 47.0891 43.69ZM45.3971 43.348C45.3971 42.724 45.2591 42.19 44.9831 41.746C44.7071 41.29 44.3291 40.948 43.8491 40.72C43.3811 40.48 42.8591 40.36 42.2831 40.36C41.4551 40.36 40.7471 40.624 40.1591 41.152C39.5831 41.68 39.2531 42.412 39.1691 43.348H45.3971ZM50.8892 40.738C51.1772 40.174 51.5852 39.736 52.1132 39.424C52.6532 39.112 53.3072 38.956 54.0752 38.956V40.648H53.6432C51.8072 40.648 50.8892 41.644 50.8892 43.636V49H49.2512V39.136H50.8892V40.738ZM64.9661 43.69C64.9661 44.002 64.9481 44.332 64.9121 44.68H57.0281C57.0881 45.652 57.4181 46.414 58.0181 46.966C58.6301 47.506 59.3681 47.776 60.2321 47.776C60.9401 47.776 61.5281 47.614 61.9961 47.29C62.4761 46.954 62.8121 46.51 63.0041 45.958H64.7681C64.5041 46.906 63.9761 47.68 63.1841 48.28C62.3921 48.868 61.4081 49.162 60.2321 49.162C59.2961 49.162 58.4561 48.952 57.7121 48.532C56.9801 48.112 56.4041 47.518 55.9841 46.75C55.5641 45.97 55.3541 45.07 55.3541 44.05C55.3541 43.03 55.5581 42.136 55.9661 41.368C56.3741 40.6 56.9441 40.012 57.6761 39.604C58.4201 39.184 59.2721 38.974 60.2321 38.974C61.1681 38.974 61.9961 39.178 62.7161 39.586C63.4361 39.994 63.9881 40.558 64.3721 41.278C64.7681 41.986 64.9661 42.79 64.9661 43.69ZM63.2741 43.348C63.2741 42.724 63.1361 42.19 62.8601 41.746C62.5841 41.29 62.2061 40.948 61.7261 40.72C61.2581 40.48 60.7361 40.36 60.1601 40.36C59.3321 40.36 58.6241 40.624 58.0361 41.152C57.4601 41.68 57.1301 42.412 57.0461 43.348H63.2741ZM66.5162 44.032C66.5162 43.024 66.7202 42.142 67.1282 41.386C67.5362 40.618 68.0942 40.024 68.8022 39.604C69.5222 39.184 70.3262 38.974 71.2142 38.974C71.9822 38.974 72.6962 39.154 73.3562 39.514C74.0162 39.862 74.5202 40.324 74.8682 40.9V35.68H76.5242V49H74.8682V47.146C74.5442 47.734 74.0642 48.22 73.4282 48.604C72.7922 48.976 72.0482 49.162 71.1962 49.162C70.3202 49.162 69.5222 48.946 68.8022 48.514C68.0942 48.082 67.5362 47.476 67.1282 46.696C66.7202 45.916 66.5162 45.028 66.5162 44.032ZM74.8682 44.05C74.8682 43.306 74.7182 42.658 74.4182 42.106C74.1182 41.554 73.7102 41.134 73.1942 40.846C72.6902 40.546 72.1322 40.396 71.5202 40.396C70.9082 40.396 70.3502 40.54 69.8462 40.828C69.3422 41.116 68.9402 41.536 68.6402 42.088C68.3402 42.64 68.1902 43.288 68.1902 44.032C68.1902 44.788 68.3402 45.448 68.6402 46.012C68.9402 46.564 69.3422 46.99 69.8462 47.29C70.3502 47.578 70.9082 47.722 71.5202 47.722C72.1322 47.722 72.6902 47.578 73.1942 47.29C73.7102 46.99 74.1182 46.564 74.4182 46.012C74.7182 45.448 74.8682 44.794 74.8682 44.05ZM85.7291 40.972C86.0651 40.384 86.5571 39.904 87.2051 39.532C87.8531 39.16 88.5911 38.974 89.4191 38.974C90.3071 38.974 91.1051 39.184 91.8131 39.604C92.5211 40.024 93.0791 40.618 93.4871 41.386C93.8951 42.142 94.0991 43.024 94.0991 44.032C94.0991 45.028 93.8951 45.916 93.4871 46.696C93.0791 47.476 92.5151 48.082 91.7951 48.514C91.0871 48.946 90.2951 49.162 89.4191 49.162C88.5671 49.162 87.8171 48.976 87.1691 48.604C86.5331 48.232 86.0531 47.758 85.7291 47.182V49H84.0911V35.68H85.7291V40.972ZM92.4251 44.032C92.4251 43.288 92.2751 42.64 91.9751 42.088C91.6751 41.536 91.2671 41.116 90.7511 40.828C90.2471 40.54 89.6891 40.396 89.0771 40.396C88.4771 40.396 87.9191 40.546 87.4031 40.846C86.8991 41.134 86.4911 41.56 86.1791 42.124C85.8791 42.676 85.7291 43.318 85.7291 44.05C85.7291 44.794 85.8791 45.448 86.1791 46.012C86.4911 46.564 86.8991 46.99 87.4031 47.29C87.9191 47.578 88.4771 47.722 89.0771 47.722C89.6891 47.722 90.2471 47.578 90.7511 47.29C91.2671 46.99 91.6751 46.564 91.9751 46.012C92.2751 45.448 92.4251 44.788 92.4251 44.032ZM104.751 39.136L98.8111 53.644H97.1191L99.0631 48.892L95.0851 39.136H96.9031L99.9991 47.128L103.059 39.136H104.751Z" fill="#4B321D"/>
<path d="M190.908 49.108C190.596 49.108 190.332 49 190.116 48.784C189.9 48.568 189.792 48.304 189.792 47.992C189.792 47.68 189.9 47.416 190.116 47.2C190.332 46.984 190.596 46.876 190.908 46.876C191.208 46.876 191.46 46.984 191.664 47.2C191.88 47.416 191.988 47.68 191.988 47.992C191.988 48.304 191.88 48.568 191.664 48.784C191.46 49 191.208 49.108 190.908 49.108Z" fill="#4B321D"/>
<path d="M127.154 36.454L123.518 49H121.682L118.766 38.902L115.742 49L113.924 49.018L110.414 36.454H112.16L114.896 47.092L117.92 36.454H119.756L122.636 47.056L125.39 36.454H127.154ZM137.947 43.69C137.947 44.002 137.929 44.332 137.893 44.68H130.009C130.069 45.652 130.399 46.414 130.999 46.966C131.611 47.506 132.349 47.776 133.213 47.776C133.921 47.776 134.509 47.614 134.977 47.29C135.457 46.954 135.793 46.51 135.985 45.958H137.749C137.485 46.906 136.957 47.68 136.165 48.28C135.373 48.868 134.389 49.162 133.213 49.162C132.277 49.162 131.437 48.952 130.693 48.532C129.961 48.112 129.385 47.518 128.965 46.75C128.545 45.97 128.335 45.07 128.335 44.05C128.335 43.03 128.539 42.136 128.947 41.368C129.355 40.6 129.925 40.012 130.657 39.604C131.401 39.184 132.253 38.974 133.213 38.974C134.149 38.974 134.977 39.178 135.697 39.586C136.417 39.994 136.969 40.558 137.353 41.278C137.749 41.986 137.947 42.79 137.947 43.69ZM136.255 43.348C136.255 42.724 136.117 42.19 135.841 41.746C135.565 41.29 135.187 40.948 134.707 40.72C134.239 40.48 133.717 40.36 133.141 40.36C132.313 40.36 131.605 40.624 131.017 41.152C130.441 41.68 130.111 42.412 130.027 43.348H136.255ZM141.747 40.972C142.083 40.384 142.575 39.904 143.223 39.532C143.871 39.16 144.609 38.974 145.437 38.974C146.325 38.974 147.123 39.184 147.831 39.604C148.539 40.024 149.097 40.618 149.505 41.386C149.913 42.142 150.117 43.024 150.117 44.032C150.117 45.028 149.913 45.916 149.505 46.696C149.097 47.476 148.533 48.082 147.813 48.514C147.105 48.946 146.313 49.162 145.437 49.162C144.585 49.162 143.835 48.976 143.187 48.604C142.551 48.232 142.071 47.758 141.747 47.182V49H140.109V35.68H141.747V40.972ZM148.443 44.032C148.443 43.288 148.293 42.64 147.993 42.088C147.693 41.536 147.285 41.116 146.769 40.828C146.265 40.54 145.707 40.396 145.095 40.396C144.495 40.396 143.937 40.546 143.421 40.846C142.917 41.134 142.509 41.56 142.197 42.124C141.897 42.676 141.747 43.318 141.747 44.05C141.747 44.794 141.897 45.448 142.197 46.012C142.509 46.564 142.917 46.99 143.421 47.29C143.937 47.578 144.495 47.722 145.095 47.722C145.707 47.722 146.265 47.578 146.769 47.29C147.285 46.99 147.693 46.564 147.993 46.012C148.293 45.448 148.443 44.788 148.443 44.032ZM156.287 40.486H154.217V49H152.579V40.486H151.301V39.136H152.579V38.434C152.579 37.33 152.861 36.526 153.425 36.022C154.001 35.506 154.919 35.248 156.179 35.248V36.616C155.459 36.616 154.949 36.76 154.649 37.048C154.361 37.324 154.217 37.786 154.217 38.434V39.136H156.287V40.486ZM159.835 35.68V49H158.197V35.68H159.835ZM166.928 49.162C166.004 49.162 165.164 48.952 164.408 48.532C163.664 48.112 163.076 47.518 162.644 46.75C162.224 45.97 162.014 45.07 162.014 44.05C162.014 43.042 162.23 42.154 162.662 41.386C163.106 40.606 163.706 40.012 164.462 39.604C165.218 39.184 166.064 38.974 167 38.974C167.936 38.974 168.782 39.184 169.538 39.604C170.294 40.012 170.888 40.6 171.32 41.368C171.764 42.136 171.986 43.03 171.986 44.05C171.986 45.07 171.758 45.97 171.302 46.75C170.858 47.518 170.252 48.112 169.484 48.532C168.716 48.952 167.864 49.162 166.928 49.162ZM166.928 47.722C167.516 47.722 168.068 47.584 168.584 47.308C169.1 47.032 169.514 46.618 169.826 46.066C170.15 45.514 170.312 44.842 170.312 44.05C170.312 43.258 170.156 42.586 169.844 42.034C169.532 41.482 169.124 41.074 168.62 40.81C168.116 40.534 167.57 40.396 166.982 40.396C166.382 40.396 165.83 40.534 165.326 40.81C164.834 41.074 164.438 41.482 164.138 42.034C163.838 42.586 163.688 43.258 163.688 44.05C163.688 44.854 163.832 45.532 164.12 46.084C164.42 46.636 164.816 47.05 165.308 47.326C165.8 47.59 166.34 47.722 166.928 47.722ZM187.28 39.136L184.202 49H182.51L180.134 41.17L177.758 49H176.066L172.97 39.136H174.644L176.912 47.416L179.36 39.136H181.034L183.428 47.434L185.66 39.136H187.28Z" fill="#4B321D"/>
<path d="M7.146 8.328C8.358 8.328 9.438 8.604 10.386 9.156C11.334 9.696 12.066 10.452 12.582 11.424C13.11 12.384 13.374 13.482 13.374 14.718C13.374 15.954 13.11 17.058 12.582 18.03C12.066 18.99 11.334 19.746 10.386 20.298C9.438 20.838 8.358 21.108 7.146 21.108C5.922 21.108 4.836 20.838 3.888 20.298C2.94 19.746 2.202 18.99 1.674 18.03C1.146 17.058 0.882 15.954 0.882 14.718C0.882 13.482 1.146 12.384 1.674 11.424C2.202 10.452 2.94 9.696 3.888 9.156C4.836 8.604 5.922 8.328 7.146 8.328ZM7.146 9.048C6.03 9.048 5.058 9.288 4.23 9.768C3.402 10.236 2.766 10.896 2.322 11.748C1.878 12.6 1.656 13.59 1.656 14.718C1.656 15.834 1.878 16.824 2.322 17.688C2.766 18.54 3.402 19.206 4.23 19.686C5.058 20.166 6.03 20.406 7.146 20.406C8.25 20.406 9.21 20.166 10.026 19.686C10.854 19.206 11.49 18.54 11.934 17.688C12.378 16.824 12.6 15.834 12.6 14.718C12.6 13.59 12.378 12.6 11.934 11.748C11.49 10.896 10.854 10.236 10.026 9.768C9.21 9.288 8.25 9.048 7.146 9.048ZM7.11 10.542C6.39 10.542 5.73 10.71 5.13 11.046C4.542 11.382 4.074 11.868 3.726 12.504C3.378 13.128 3.204 13.86 3.204 14.7C3.204 15.54 3.378 16.278 3.726 16.914C4.074 17.538 4.542 18.024 5.13 18.372C5.73 18.708 6.39 18.876 7.11 18.876C8.01 18.876 8.79 18.636 9.45 18.156C10.11 17.664 10.56 17.01 10.8 16.194H9.288C8.928 17.19 8.202 17.688 7.11 17.688C6.39 17.688 5.802 17.43 5.346 16.914C4.89 16.398 4.662 15.666 4.662 14.718C4.662 13.758 4.89 13.02 5.346 12.504C5.802 11.988 6.39 11.73 7.11 11.73C7.638 11.73 8.094 11.862 8.478 12.126C8.862 12.378 9.132 12.744 9.288 13.224H10.8C10.572 12.372 10.128 11.712 9.468 11.244C8.808 10.776 8.022 10.542 7.11 10.542ZM27.8567 18.21H22.3847L21.3767 21H19.6487L24.1847 8.526H26.0747L30.5927 21H28.8647L27.8567 18.21ZM27.3887 16.878L25.1207 10.542L22.8527 16.878H27.3887ZM34.2076 7.68V21H32.5696V7.68H34.2076ZM41.3013 21.162C40.3773 21.162 39.5373 20.952 38.7813 20.532C38.0373 20.112 37.4493 19.518 37.0173 18.75C36.5973 17.97 36.3873 17.07 36.3873 16.05C36.3873 15.042 36.6033 14.154 37.0353 13.386C37.4793 12.606 38.0793 12.012 38.8353 11.604C39.5913 11.184 40.4373 10.974 41.3733 10.974C42.3093 10.974 43.1553 11.184 43.9113 11.604C44.6673 12.012 45.2613 12.6 45.6933 13.368C46.1373 14.136 46.3593 15.03 46.3593 16.05C46.3593 17.07 46.1313 17.97 45.6753 18.75C45.2313 19.518 44.6253 20.112 43.8573 20.532C43.0893 20.952 42.2373 21.162 41.3013 21.162ZM41.3013 19.722C41.8893 19.722 42.4413 19.584 42.9573 19.308C43.4733 19.032 43.8873 18.618 44.1993 18.066C44.5233 17.514 44.6853 16.842 44.6853 16.05C44.6853 15.258 44.5293 14.586 44.2173 14.034C43.9053 13.482 43.4973 13.074 42.9933 12.81C42.4893 12.534 41.9433 12.396 41.3553 12.396C40.7553 12.396 40.2033 12.534 39.6993 12.81C39.2073 13.074 38.8113 13.482 38.5113 14.034C38.2113 14.586 38.0613 15.258 38.0613 16.05C38.0613 16.854 38.2053 17.532 38.4933 18.084C38.7933 18.636 39.1893 19.05 39.6813 19.326C40.1733 19.59 40.7133 19.722 41.3013 19.722ZM53.409 10.956C54.153 10.956 54.825 11.118 55.425 11.442C56.025 11.754 56.493 12.228 56.829 12.864C57.177 13.5 57.351 14.274 57.351 15.186V21H55.731V15.42C55.731 14.436 55.485 13.686 54.993 13.17C54.501 12.642 53.829 12.378 52.977 12.378C52.113 12.378 51.423 12.648 50.907 13.188C50.403 13.728 50.151 14.514 50.151 15.546V21H48.513V7.68H50.151V12.54C50.475 12.036 50.919 11.646 51.483 11.37C52.059 11.094 52.701 10.956 53.409 10.956ZM59.4146 16.032C59.4146 15.024 59.6186 14.142 60.0266 13.386C60.4346 12.618 60.9926 12.024 61.7006 11.604C62.4206 11.184 63.2186 10.974 64.0946 10.974C64.9586 10.974 65.7086 11.16 66.3446 11.532C66.9806 11.904 67.4546 12.372 67.7666 12.936V11.136H69.4226V21H67.7666V19.164C67.4426 19.74 66.9566 20.22 66.3086 20.604C65.6726 20.976 64.9286 21.162 64.0766 21.162C63.2006 21.162 62.4086 20.946 61.7006 20.514C60.9926 20.082 60.4346 19.476 60.0266 18.696C59.6186 17.916 59.4146 17.028 59.4146 16.032ZM67.7666 16.05C67.7666 15.306 67.6166 14.658 67.3166 14.106C67.0166 13.554 66.6086 13.134 66.0926 12.846C65.5886 12.546 65.0306 12.396 64.4186 12.396C63.8066 12.396 63.2486 12.54 62.7446 12.828C62.2406 13.116 61.8386 13.536 61.5386 14.088C61.2386 14.64 61.0886 15.288 61.0886 16.032C61.0886 16.788 61.2386 17.448 61.5386 18.012C61.8386 18.564 62.2406 18.99 62.7446 19.29C63.2486 19.578 63.8066 19.722 64.4186 19.722C65.0306 19.722 65.5886 19.578 66.0926 19.29C66.6086 18.99 67.0166 18.564 67.3166 18.012C67.6166 17.448 67.7666 16.794 67.7666 16.05Z" fill="#4B321D"/>
<defs>
<clipPath id="clip0_2_56">
<rect width="50" height="57" fill="white" transform="translate(0 140)"/>
</clipPath>
</defs>
</svg>
